<?xml version="1.0" encoding="UTF-8" standalone="no"?>
<!-- Created with Inkscape (http://www.inkscape.org/) -->

<svg
   width="210mm"
   height="297mm"
   viewBox="0 0 210 297"
   version="1.1"
   id="svg1"
   inkscape:version="1.4 (e7c3feb1, 2024-10-09)"
   sodipodi:docname="background.svg"
   xmlns:inkscape="http://www.inkscape.org/namespaces/inkscape"
   xmlns:sodipodi="http://sodipodi.sourceforge.net/DTD/sodipodi-0.dtd"
   xmlns:xlink="http://www.w3.org/1999/xlink"
   xmlns="http://www.w3.org/2000/svg"
   xmlns:svg="http://www.w3.org/2000/svg">
  <sodipodi:namedview
     id="namedview1"
     pagecolor="#ffffff"
     bordercolor="#000000"
     borderopacity="0.25"
     inkscape:showpageshadow="2"
     inkscape:pageopacity="0.0"
     inkscape:pagecheckerboard="0"
     inkscape:deskcolor="#d1d1d1"
     inkscape:document-units="mm"
     inkscape:zoom="0.74118967"
     inkscape:cx="287.37583"
     inkscape:cy="613.87796"
     inkscape:window-width="1904"
     inkscape:window-height="1027"
     inkscape:window-x="16"
     inkscape:window-y="25"
     inkscape:window-maximized="0"
     inkscape:current-layer="layer4" />
  <defs
     id="defs1">
    <linearGradient
       id="linearGradient63"
       inkscape:collect="always">
      <stop
         style="stop-color:#19035f;stop-opacity:0.82876712;"
         offset="0"
         id="stop64" />
      <stop
         style="stop-color:#5f2c88;stop-opacity:0.73630136;"
         offset="1"
         id="stop65" />
    </linearGradient>
    <linearGradient
       inkscape:collect="always"
       xlink:href="#linearGradient63"
       id="linearGradient65"
       x1="108.34074"
       y1="35.875599"
       x2="108.34074"
       y2="267.54987"
       gradientUnits="userSpaceOnUse" />
  </defs>
  <g
     inkscape:label="Layer 1"
     inkscape:groupmode="layer"
     id="layer1"
     style="display:none;fill:#d5dde2;fill-opacity:1">
    <path
       style="fill:#d5dde2;fill-opacity:1;stroke-width:0.264999"
       d="m 26.220862,137.64859 -3.553874,-12.3704 10.471437,5.46946 16.649592,-7.69844 3.04157,7.03741 -7.075518,0.21973 -0.08729,3.56865 -4.377209,-0.60697 -0.943191,7.90406 6.599474,-1.19548 -0.01629,-3.71402 4.044689,1.06304 2.785588,-4.39533 2.647278,7.09918 -12.977374,7.93109 -2.371321,4.97679 -8.734449,-0.5707 0.592534,-9.62663 z"
       id="path8"
       inkscape:transform-center-x="-0.89492567"
       inkscape:transform-center-y="3.0581883" />
    <path
       style="fill:#d5dde2;fill-opacity:1;stroke-width:0.264999"
       d="m 60.576838,153.1529 -3.553874,-12.3704 10.471437,5.46946 16.649592,-7.69844 3.04157,7.03741 -7.075518,0.21973 -0.08729,3.56865 -4.377209,-0.60697 -0.943191,7.90406 6.599474,-1.19548 -0.01629,-3.71402 4.044689,1.06304 2.785588,-4.39533 2.647278,7.09918 -12.977374,7.93109 -2.371321,4.97679 -8.734449,-0.5707 0.592534,-9.62663 z"
       id="path15"
       inkscape:spray-origin="#path8" />
    <path
       style="fill:#d5dde2;fill-opacity:1;stroke-width:0.264999"
       d="m 94.489098,167.78872 -3.553874,-12.3704 10.471436,5.46946 16.64959,-7.69844 3.04157,7.03741 -7.07552,0.21973 -0.0873,3.56865 -4.3772,-0.60697 -0.9432,7.90406 6.59948,-1.19548 -0.0163,-3.71402 4.04469,1.06304 2.78559,-4.39533 2.64727,7.09918 -12.97737,7.93109 -2.37132,4.97679 -8.73445,-0.5707 0.59253,-9.62663 z"
       id="path16"
       inkscape:spray-origin="#path8" />
    <path
       style="fill:#d5dde2;fill-opacity:1;stroke-width:0.264999"
       d="m 127.68742,182.42454 -3.55388,-12.3704 10.47144,5.46946 16.64959,-7.69844 3.04157,7.03741 -7.07552,0.21973 -0.0873,3.56865 -4.37721,-0.60697 -0.94319,7.90406 6.59948,-1.19548 -0.0163,-3.71402 4.04469,1.06304 2.78558,-4.39533 2.64728,7.09918 -12.97737,7.93109 -2.37132,4.97679 -8.73445,-0.5707 0.59253,-9.62663 z"
       id="path17"
       inkscape:spray-origin="#path8" />
    <path
       style="fill:#d5dde2;fill-opacity:1;stroke-width:0.264999"
       d="m 161.2427,197.06035 -3.55387,-12.3704 10.47144,5.46946 16.64959,-7.69844 3.04157,7.03741 -7.07552,0.21973 -0.0873,3.56865 -4.37721,-0.60697 -0.94319,7.90406 6.59947,-1.19548 -0.0163,-3.71402 4.04469,1.06304 2.78559,-4.39533 2.64728,7.09918 -12.97737,7.93109 -2.37133,4.97679 -8.73444,-0.5707 0.59253,-9.62663 z"
       id="path18"
       inkscape:spray-origin="#path8" />
    <path
       style="fill:#d5dde2;fill-opacity:1;stroke-width:0.264999"
       d="m 195.15496,212.05314 -3.55387,-12.3704 10.47144,5.46946 16.64959,-7.69844 3.04157,7.03741 -7.07552,0.21973 -0.0873,3.56865 -4.37721,-0.60697 -0.94319,7.90406 6.59947,-1.19548 -0.0163,-3.71402 4.04469,1.06304 2.78559,-4.39533 2.64728,7.09918 -12.97737,7.93109 -2.37133,4.97679 -8.73444,-0.5707 0.59253,-9.62663 z"
       id="path19"
       inkscape:spray-origin="#path8" />
    <path
       style="fill:#d5dde2;fill-opacity:1;stroke-width:0.264999"
       d="m -7.9616237,123.88127 -3.5538743,-12.3704 10.4714373,5.46946 16.6495917,-7.69844 3.04157,7.03741 -7.075518,0.21973 -0.08729,3.56865 -4.3772087,-0.60697 -0.943191,7.90406 6.5994737,-1.19548 -0.01629,-3.71402 4.044689,1.06304 2.785588,-4.39533 2.647278,7.09918 -12.9773737,7.93109 -2.371321,4.97679 -8.734449,-0.5707 0.592534,-9.62663 z"
       id="path20"
       inkscape:spray-origin="#path8" />
    <path
       style="fill:#d5dde2;fill-opacity:1;stroke-width:0.264999"
       d="m 43.799194,108.17454 -3.553874,-12.370404 10.471437,5.469464 16.649592,-7.698444 3.04157,7.037414 -7.075518,0.21973 -0.08729,3.56865 -4.377209,-0.60697 -0.943191,7.90406 6.599474,-1.19548 -0.01629,-3.71402 4.044689,1.06304 2.785588,-4.39533 2.647278,7.09918 -12.977374,7.93109 -2.371321,4.97679 -8.734449,-0.5707 0.592534,-9.62663 z"
       id="path21"
       inkscape:spray-origin="#path8" />
    <path
       style="fill:#d5dde2;fill-opacity:1;stroke-width:0.264999"
       d="m 61.647752,78.902901 -3.553874,-12.3704 10.471437,5.46946 16.649592,-7.69844 3.04157,7.03741 -7.075518,0.21973 -0.08729,3.56865 -4.377209,-0.60697 -0.943191,7.90406 6.599474,-1.19548 -0.01629,-3.71402 4.044689,1.06304 2.785588,-4.39533 2.647278,7.09918 -12.977374,7.93109 -2.371321,4.97679 -8.734449,-0.5707 0.592534,-9.62663 z"
       id="path22"
       inkscape:spray-origin="#path8" />
    <path
       style="fill:#d5dde2;fill-opacity:1;stroke-width:0.264999"
       d="m 95.20304,93.181748 -3.553874,-12.3704 10.471434,5.46946 16.6496,-7.69844 3.04157,7.03741 -7.07552,0.21973 -0.0873,3.56865 -4.37721,-0.60697 -0.94319,7.90406 6.59947,-1.19548 -0.0163,-3.71402 4.04469,1.06304 2.78559,-4.39533 2.64728,7.09918 -12.97738,7.931092 -2.37132,4.97679 -8.73445,-0.5707 0.59254,-9.626632 z"
       id="path23"
       inkscape:spray-origin="#path8" />
    <path
       style="fill:#d5dde2;fill-opacity:1;stroke-width:0.264999"
       d="m 113.40857,63.910113 -3.55388,-12.3704 10.47144,5.46946 16.64959,-7.69844 3.04157,7.03741 -7.07551,0.21973 -0.0873,3.56865 -4.37721,-0.60697 -0.94319,7.90406 6.59947,-1.19548 -0.0163,-3.71402 4.04469,1.06304 2.78559,-4.39533 2.64727,7.09918 -12.97737,7.93109 -2.37132,4.97679 -8.73445,-0.5707 0.59253,-9.62663 z"
       id="path24"
       inkscape:spray-origin="#path8" />
    <path
       style="fill:#d5dde2;fill-opacity:1;stroke-width:0.264999"
       d="m 146.96386,78.188959 -3.55388,-12.3704 10.47144,5.46946 16.64959,-7.69844 3.04157,7.03741 -7.07552,0.21973 -0.0873,3.56865 -4.3772,-0.60697 -0.9432,7.90406 6.59948,-1.19548 -0.0163,-3.71402 4.04469,1.06304 2.78559,-4.39533 2.64727,7.09918 -12.97737,7.93109 -2.37132,4.97679 -8.73445,-0.5707 0.59253,-9.62663 z"
       id="path25"
       inkscape:spray-origin="#path8" />
    <path
       style="fill:#d5dde2;fill-opacity:1;stroke-width:0.264999"
       d="m 164.45544,48.560353 -3.55387,-12.3704 10.47144,5.46946 16.64959,-7.69844 3.04157,7.03741 -7.07552,0.21973 -0.0873,3.56865 -4.37721,-0.60697 -0.94319,7.90406 6.59948,-1.19548 -0.0163,-3.71402 4.04468,1.06304 2.78559,-4.39533 2.64728,7.09918 -12.97737,7.93109 -2.37132,4.97679 -8.73445,-0.5707 0.59253,-9.62663 z"
       id="path26"
       inkscape:spray-origin="#path8" />
    <path
       style="fill:#d5dde2;fill-opacity:1;stroke-width:0.264999"
       d="m 198.3677,62.839199 -3.55387,-12.3704 10.47144,5.46946 16.64959,-7.69844 3.04157,7.03741 -7.07552,0.21973 -0.0873,3.56865 -4.37721,-0.60697 -0.94319,7.90406 6.59947,-1.19548 -0.0163,-3.71402 4.04469,1.06304 2.78559,-4.39533 2.64728,7.09918 -12.97737,7.93109 -2.37133,4.97679 -8.73444,-0.5707 0.59253,-9.62663 z"
       id="path27"
       inkscape:spray-origin="#path8" />
    <path
       style="fill:#d5dde2;fill-opacity:1;stroke-width:0.264999"
       d="m 145.179,153.50987 -3.55387,-12.3704 10.47143,5.46946 16.6496,-7.69844 3.04157,7.03741 -7.07552,0.21973 -0.0873,3.56865 -4.37721,-0.60697 -0.94319,7.90406 6.59947,-1.19548 -0.0163,-3.71402 4.04469,1.06304 2.78559,-4.39533 2.64728,7.09918 -12.97738,7.93109 -2.37132,4.97679 -8.73445,-0.5707 0.59254,-9.62663 z"
       id="path28"
       inkscape:spray-origin="#path8" />
    <path
       style="fill:#d5dde2;fill-opacity:1;stroke-width:0.264999"
       d="m 162.31362,124.23824 -3.55388,-12.3704 10.47144,5.46946 16.64959,-7.69844 3.04157,7.03741 -7.07552,0.21973 -0.0873,3.56865 -4.3772,-0.60697 -0.9432,7.90406 6.59948,-1.19548 -0.0163,-3.71402 4.04469,1.06304 2.78559,-4.39533 2.64727,7.09918 -12.97737,7.93109 -2.37132,4.97679 -8.73445,-0.5707 0.59253,-9.62663 z"
       id="path29"
       inkscape:spray-origin="#path8" />
    <path
       style="fill:#d5dde2;fill-opacity:1;stroke-width:0.264999"
       d="m 76.64054,197.06035 -3.553874,-12.3704 10.471437,5.46946 16.649597,-7.69844 3.04157,7.03741 -7.075523,0.21973 -0.08729,3.56865 -4.377209,-0.60697 -0.943191,7.90406 6.599474,-1.19548 -0.01629,-3.71402 4.044689,1.06304 2.78559,-4.39533 2.64728,7.09918 -12.977378,7.93109 -2.371321,4.97679 -8.734449,-0.5707 0.592534,-9.62663 z"
       id="path30"
       inkscape:spray-origin="#path8" />
    <path
       style="fill:#d5dde2;fill-opacity:1;stroke-width:0.264999"
       d="m 59.505925,225.97502 -3.553874,-12.3704 10.471437,5.46946 16.649592,-7.69844 3.04157,7.03741 -7.075518,0.21973 -0.08729,3.56865 -4.377209,-0.60697 -0.943191,7.90406 6.599474,-1.19548 -0.01629,-3.71402 4.044689,1.06304 2.785588,-4.39533 2.647278,7.09918 -12.977374,7.93109 -2.371321,4.97679 -8.734449,-0.5707 0.592534,-9.62663 z"
       id="path31"
       inkscape:spray-origin="#path8" />
    <path
       style="fill:#d5dde2;fill-opacity:1;stroke-width:0.264999"
       d="m 42.371309,254.88968 -3.553874,-12.3704 10.471437,5.46946 16.649592,-7.69844 3.04157,7.03741 -7.075518,0.21973 -0.08729,3.56865 -4.377209,-0.60697 -0.943191,7.90406 6.599474,-1.19548 -0.01629,-3.71402 4.044689,1.06304 2.785588,-4.39533 2.647278,7.09918 -12.977374,7.93109 -2.371321,4.97679 -8.734449,-0.5707 0.592534,-9.62663 z"
       id="path32"
       inkscape:spray-origin="#path8" />
    <path
       style="fill:#d5dde2;fill-opacity:1;stroke-width:0.264999"
       d="m 8.8160206,240.61083 -3.553874,-12.3704 10.4714374,5.46946 16.649592,-7.69844 3.04157,7.03741 -7.075518,0.21973 -0.08729,3.56865 -4.377209,-0.60697 -0.943191,7.90406 6.599474,-1.19548 -0.01629,-3.71402 4.044689,1.06304 2.785588,-4.39533 2.647278,7.09918 -12.977374,7.93109 -2.371321,4.97679 -8.734449,-0.5707 0.592534,-9.62663 z"
       id="path33"
       inkscape:spray-origin="#path8" />
    <path
       style="fill:#d5dde2;fill-opacity:1;stroke-width:0.264999"
       d="m 76.283569,269.5255 -3.553874,-12.3704 10.471437,5.46946 16.649592,-7.69844 3.041566,7.03741 -7.075514,0.21973 -0.08729,3.56865 -4.377209,-0.60697 -0.943191,7.90406 6.599474,-1.19548 -0.01629,-3.71402 4.04469,1.06304 2.78559,-4.39533 2.64727,7.09918 -12.977369,7.93109 -2.371321,4.97679 -8.734449,-0.5707 0.592534,-9.62663 z"
       id="path34"
       inkscape:spray-origin="#path8" />
    <path
       style="fill:#d5dde2;fill-opacity:1;stroke-width:0.264999"
       d="m 110.19583,284.51829 -3.55388,-12.3704 10.47144,5.46946 16.64959,-7.69844 3.04157,7.03741 -7.07551,0.21973 -0.0873,3.56865 -4.37721,-0.60697 -0.94319,7.90406 6.59947,-1.19548 -0.0163,-3.71402 4.04469,1.06304 2.78559,-4.39533 2.64727,7.09918 -12.97737,7.93109 -2.37132,4.97679 -8.73445,-0.5707 0.59253,-9.62663 z"
       id="path35"
       inkscape:spray-origin="#path8" />
    <path
       style="fill:#d5dde2;fill-opacity:1;stroke-width:0.264999"
       d="m 144.10809,299.1541 -3.55388,-12.3704 10.47144,5.46946 16.64959,-7.69844 3.04157,7.03741 -7.07551,0.21973 -0.0873,3.56865 -4.37721,-0.60697 -0.94319,7.90406 6.59947,-1.19548 -0.0163,-3.71402 4.04469,1.06304 2.78559,-4.39533 2.64727,7.09918 -12.97737,7.93109 -2.37132,4.97679 -8.73445,-0.5707 0.59253,-9.62663 z"
       id="path36"
       inkscape:spray-origin="#path8" />
    <path
       style="fill:#d5dde2;fill-opacity:1;stroke-width:0.264999"
       d="m 28.092463,64.267084 -3.553874,-12.3704 10.471437,5.46946 16.649592,-7.69844 3.04157,7.03741 -7.075518,0.21973 -0.08729,3.56865 -4.377209,-0.60697 -0.943191,7.90406 6.599474,-1.19548 -0.01629,-3.71402 4.044689,1.06304 2.785588,-4.39533 2.647278,7.09918 -12.977374,7.93109 -2.371321,4.97679 -8.734449,-0.5707 0.592534,-9.62663 z"
       id="path37"
       inkscape:spray-origin="#path8" />
    <path
       style="fill:#d5dde2;fill-opacity:1;stroke-width:0.264999"
       d="m -5.4628256,49.274296 -3.553874,-12.3704 10.471437,5.46946 16.6495916,-7.69844 3.04157,7.03741 -7.075518,0.21973 -0.08729,3.56865 -4.3772086,-0.60697 -0.943191,7.90406 6.5994736,-1.19548 -0.01629,-3.71402 4.044689,1.06304 2.785588,-4.39533 2.647278,7.09918 -12.977374,7.93109 -2.3713206,4.97679 -8.73444899,-0.5707 0.59253399,-9.62663 z"
       id="path38"
       inkscape:spray-origin="#path8" />
    <path
       style="fill:#d5dde2;fill-opacity:1;stroke-width:0.264999"
       d="m 12.028761,20.359632 -3.553874,-12.3704 10.471437,5.46946 16.649592,-7.69844 3.04157,7.03741 -7.075518,0.21973 -0.08729,3.56865 -4.377209,-0.60697 -0.943191,7.90406 6.599474,-1.19548 -0.01629,-3.71402 4.044689,1.06304 2.785588,-4.39533 2.647278,7.09918 -12.977374,7.93109 -2.371321,4.97679 -8.734449,-0.5707 0.592534,-9.62663 z"
       id="path39"
       inkscape:spray-origin="#path8" />
    <path
       style="fill:#d5dde2;fill-opacity:1;stroke-width:0.264999"
       d="m -24.739268,225.97502 -3.553874,-12.3704 10.471437,5.46946 16.649592,-7.69844 3.04157,7.03741 -7.075518,0.21973 -0.08729,3.56865 -4.377209,-0.60697 -0.943191,7.90406 6.599474,-1.19548 -0.01629,-3.71402 4.04468905,1.06304 2.78558795,-4.39533 2.647278,7.09918 -12.977374,7.93109 -2.371321,4.97679 -8.734449,-0.5707 0.592534,-9.62663 z"
       id="path40"
       inkscape:spray-origin="#path8" />
    <path
       style="fill:#d5dde2;fill-opacity:1;stroke-width:0.264999"
       d="m -6.8907102,196.34641 -3.5538738,-12.3704 10.47143679,5.46946 16.64959221,-7.69844 3.04157,7.03741 -7.075518,0.21973 -0.08729,3.56865 -4.3772092,-0.60697 -0.943191,7.90406 6.5994742,-1.19548 -0.01629,-3.71402 4.044689,1.06304 2.785588,-4.39533 2.647278,7.09918 -12.977374,7.93109 -2.3713212,4.97679 -8.73444901,-0.5707 0.592534,-9.62663 z"
       id="path41"
       inkscape:spray-origin="#path8" />
  </g>
  <g
     inkscape:groupmode="layer"
     id="layer2"
     inkscape:label="Layer 2"
     style="display:inline">
    <path
       style="fill:#d5dde2;fill-opacity:1;stroke-width:0.264999"
       d="M 21.061298,123.51202 79.247594,94.597354 108.8762,148.5 l 59.25721,-27.84375 29.27164,49.97596 63.54086,-32.48437 2.14183,67.82451 -79.60457,21.41827 -21.0613,-66.39663 L 86.743989,182.76923 70.680288,127.4387 -11.423077,163.84976 -33.912259,93.169469 -9.6382212,76.391827 Z"
       id="path42" />
    <path
       style="fill:#d5dde2;fill-opacity:1;stroke-width:0.264999"
       d="M 45.692308,36.946518 103.8786,8.0318518 l 29.62861,53.9026462 59.25721,-27.84375 29.27164,49.97596 63.54086,-32.48437 2.14183,67.824512 -79.60457,21.41827 L 187.05288,74.428488 111.375,96.203728 95.311298,40.873198 13.207933,77.284258 -9.2812491,6.6039668 14.992789,-10.173675 Z"
       id="path43"
       inkscape:spray-origin="#path42" />
    <path
       style="fill:#d5dde2;fill-opacity:1;stroke-width:0.264999"
       d="m -10.352163,218.64484 58.186296,-28.91467 29.628606,53.90265 59.257211,-27.84375 29.27164,49.97596 63.54086,-32.48437 2.14183,67.82451 -79.60457,21.41827 -21.0613,-66.39663 -75.677882,21.77524 -16.063701,-55.33053 -82.103365,36.41106 -22.489182,-70.6803 24.274037,-16.77764 z"
       id="path44"
       inkscape:spray-origin="#path42" />
  </g>
  <g
     inkscape:groupmode="layer"
     id="layer4"
     inkscape:label="Layer 3"
     style="display:inline">
    <rect
       style="fill:url(#linearGradient65);stroke-width:0.264999;fill-opacity:1"
       id="rect56"
       width="231.67427"
       height="315.5625"
       x="-7.4963942"
       y="-6.0685096" />
  </g>
</svg>
